<?xml version="1.0" encoding="UTF-8"?>
<svg width="20px" height="20px" viewBox="0 0 20 20" version="1.1" xmlns="http://www.w3.org/2000/svg" xmlns:xlink="http://www.w3.org/1999/xlink">
    <title>企业主体</title>
    <g id="页面-1" stroke="none" stroke-width="1" fill="none" fill-rule="evenodd">
        <g id="企业主体管理-–-新建" transform="translate(-19.000000, -122.000000)">
            <g id="编组-20" transform="translate(0.000000, 108.000000)">
                <g id="管理员" transform="translate(19.000000, 14.000000)">
                    <rect id="矩形_608" x="0" y="0" width="20" height="20"></rect>
                    <g id="组_3" transform="translate(3.260999, 3.254981)" fill="#FFFFFF" fill-rule="nonzero">
                        <path d="M12.751001,10.5720192 C12.3270774,10.6215541 11.9483571,10.8603127 11.720876,11.2214461 C11.493395,11.5825795 11.441603,12.027273 11.580001,12.4310192 L10.950001,12.7780192 C10.8687342,12.6986136 10.7822045,12.6247794 10.691001,12.5570192 C10.240269,12.1444238 9.54982439,12.1418265 9.09600103,12.5510192 C9.00529036,12.6175592 8.91910057,12.6900521 8.83800103,12.7680192 L8.23800103,12.4320192 C8.37639903,12.028273 8.32460703,11.5835795 8.097126,11.2224461 C7.86964498,10.8613127 7.49092466,10.6225541 7.06700103,10.5730192 C7.00951132,10.2693831 7.00951132,9.95765522 7.06700103,9.65401916 C7.49103509,9.60504343 7.87005662,9.36661345 8.09778841,9.00558473 C8.3255202,8.644556 8.37744422,8.19979756 8.23900103,7.79601916 L8.88800103,7.44001916 C8.96938717,7.51581249 9.05556515,7.58629138 9.14600103,7.65101916 C9.59133926,8.0398137 10.2546796,8.04236993 10.703001,7.65701916 C10.7929826,7.59361119 10.8785161,7.52411526 10.959001,7.44901916 L11.581001,7.79501916 C11.4425725,8.19864501 11.4943725,8.64324651 11.7218858,9.00423682 C11.9493991,9.36522713 12.3281487,9.60376947 12.752001,9.65301916 C12.8106756,9.95654289 12.8106756,10.2684954 12.752001,10.5720192 L12.751001,10.5720192 Z M13.404001,9.41501916 C13.3875236,9.18228671 13.2018069,8.99742392 12.969001,8.98201916 L12.939001,8.98201916 C12.5236829,8.98201916 12.187001,8.6453373 12.187001,8.23001916 C12.1922366,8.13222313 12.2145747,8.03610185 12.253001,7.94601916 C12.356389,7.70275346 12.2724627,7.42034142 12.053001,7.27301916 L11.174001,6.78601916 C10.9537037,6.69599805 10.7009298,6.74639534 10.532001,6.91401916 C10.40735,7.12958179 10.1767656,7.26184106 9.92776037,7.2606012 C9.67875518,7.25936134 9.44949923,7.12481241 9.32700103,6.90801916 C9.15960582,6.73872845 8.90719433,6.68596225 8.68600103,6.77401916 L8.66900103,6.78101916 L7.77500103,7.27201916 L7.75400103,7.28601916 C7.54516421,7.43399413 7.46772411,7.70753255 7.56800103,7.94301916 C7.60729789,8.03396614 7.63031427,8.13110882 7.63600103,8.23001916 C7.63489993,8.64471832 7.29870128,8.9804699 6.88400103,8.98101916 L6.83800103,8.98101916 C6.60714604,8.99879819 6.42417462,9.18304616 6.40800103,9.41401916 C6.30842756,9.87537429 6.30842756,10.352664 6.40800103,10.8140192 C6.42531814,11.0463664 6.61057646,11.2307729 6.84300103,11.2470192 L6.87300103,11.2470192 C7.28809076,11.24757 7.62445014,11.5839294 7.62500103,11.9990192 C7.61966345,12.0968007 7.59732947,12.1929045 7.55900103,12.2830192 C7.45603257,12.5263084 7.53987792,12.808448 7.75900103,12.9560192 L8.62200103,13.4370192 C8.84480719,13.5304226 9.10213817,13.4767292 9.26900103,13.3020192 C9.39247797,13.0763106 9.62981746,12.9365265 9.88708927,12.9379883 C10.1443611,12.93945 10.3800968,13.0819221 10.501001,13.3090192 C10.6729624,13.490733 10.9414438,13.5429823 11.169001,13.4390192 L12.040001,12.9570192 L12.061001,12.9430192 C12.2694749,12.7947588 12.3464829,12.5212762 12.246001,12.2860192 C12.2074524,12.1948772 12.1847917,12.0978084 12.179001,11.9990192 C12.1801021,11.58432 12.5163008,11.2485684 12.931001,11.2480192 L12.965001,11.2480192 C13.1957048,11.2303609 13.3788775,11.0467632 13.396001,10.8160192 C13.4385336,10.5849217 13.4632728,10.3509016 13.470001,10.1160192 C13.4665757,9.88097469 13.4445064,9.64657251 13.404001,9.41501916 L13.404001,9.41501916 Z M9.89300103,10.7530192 C9.63005058,10.7624009 9.38776137,10.611121 9.28075342,10.3707458 C9.17374547,10.1303706 9.22347311,9.84909348 9.40641163,9.65997857 C9.58935016,9.47086366 9.86882169,9.41182715 10.1126163,9.5107975 C10.356411,9.60976785 10.5156496,9.84690221 10.515003,10.1100192 C10.5141465,10.4566752 10.2394377,10.7406588 9.89300103,10.7530192 Z M9.89300103,8.78101916 C9.15956688,8.78101916 8.56500103,9.37558502 8.56500103,10.1090192 C8.56500103,10.8424533 9.15956688,11.4370192 9.89300103,11.4370192 C10.6264352,11.4370192 11.221001,10.8424533 11.221001,10.1090192 C11.2198996,9.37604171 10.6259785,8.78212056 9.89300103,8.78101916 L9.89300103,8.78101916 Z" id="路径_3533"></path>
                        <path d="M5.84400103,9.561627e-06 C7.73854097,-0.00441239963 9.27918411,1.52549455 9.28800103,3.42001916 C9.28800103,4.47253316 8.79961807,5.46547084 7.96600103,6.10801916 L7.75100103,6.27601916 C7.20560767,6.63614182 6.56849363,6.83255062 5.91500103,6.84201916 L5.84400103,6.84201916 C5.68600103,6.84201916 5.53000103,6.85001916 5.37700103,6.86501916 L5.37100103,6.86501916 C2.8389921,7.10258952 0.900022948,9.22191784 0.888001025,11.7650192 L0.888001025,12.5170192 L6.38800103,12.5170192 C6.53252185,12.8303616 6.71271334,13.125983 6.92500103,13.3980237 L0.444001025,13.3980237 C0.326774974,13.3985508 0.214139135,13.3524922 0.130872722,13.2699759 C0.0476063086,13.1874596 0.000530259578,13.0752452 5.12243586e-07,12.9580192 L5.12243586e-07,11.7660192 C-0.000999432325,9.3817981 1.46206576,7.24160854 3.68400103,6.37701916 L3.93800103,6.27701916 L3.72200103,6.11001916 C2.88883196,5.46666261 2.40064541,4.47367197 2.40000103,3.42101916 C2.40826826,1.52610348 3.94907248,-0.00441082227 5.84400103,9.561627e-06 Z M5.84400103,0.880015917 C4.44331447,0.888842563 3.31415033,2.02991664 3.32000055,3.43061868 C3.32589638,4.83132072 4.46458949,5.96288586 5.86530079,5.95996889 C7.2660121,5.95704062 8.40000103,4.82073351 8.40000103,3.42001916 C8.39338999,2.01371497 7.250319,0.877799363 5.84400103,0.880015917 Z" id="路径_3534"></path>
                    </g>
                </g>
            </g>
        </g>
    </g>
</svg>