<?xml version="1.0" encoding="UTF-8"?>
<svg width="20px" height="20px" viewBox="0 0 20 20" version="1.1" xmlns="http://www.w3.org/2000/svg" xmlns:xlink="http://www.w3.org/1999/xlink">
    <title>企业主体</title>
    <g id="页面-1" stroke="none" stroke-width="1" fill="none" fill-rule="evenodd">
        <g id="企业主体管理-–-新建" transform="translate(-19.000000, -170.000000)">
            <g id="编组-21" transform="translate(0.000000, 156.000000)">
                <g id="应用" transform="translate(19.000000, 14.000000)">
                    <rect id="矩形_608" x="0" y="0" width="20" height="20"></rect>
                    <path d="M8.12500089,15.9881456 L5.12500089,15.9881456 C4.50368055,15.9881456 4.00000089,15.4844659 4.00000089,14.8631456 L4.00000089,11.8631456 C4.00000089,11.2418253 4.50368055,10.7381456 5.12500089,10.7381456 L8.12500089,10.7381456 C8.74632123,10.7381456 9.25000089,11.2418253 9.25000089,11.8631456 L9.25000089,14.8631456 C9.25000089,15.4844659 8.74632123,15.9881456 8.12500089,15.9881456 L8.12500089,15.9881456 Z M5.12500089,11.4881456 C4.91789411,11.4881456 4.75000089,11.6560388 4.75000089,11.8631456 L4.75000089,14.8631456 C4.75000089,15.0702524 4.91789411,15.2381456 5.12500089,15.2381456 L8.12500089,15.2381456 C8.33210767,15.2381456 8.50000089,15.0702524 8.50000089,14.8631456 L8.50000089,11.8631456 C8.50000089,11.6560388 8.33210767,11.4881456 8.12500089,11.4881456 L5.12500089,11.4881456 Z M8.12500089,9.9881456 L5.12500089,9.9881456 C4.50368055,9.9881456 4.00000044,9.48446594 4.00000044,8.8631456 L4.00000044,5.8631456 C3.99973552,5.56460382 4.1181448,5.2781987 4.329152,5.06700394 C4.54015919,4.85580919 4.826459,4.7371456 5.12500089,4.7371456 L8.12500089,4.7371456 C8.74632123,4.7371456 9.25000133,5.24082525 9.25000133,5.8621456 L9.25000133,8.8621456 C9.25026626,9.16068737 9.13185697,9.44709249 8.92084978,9.65828725 C8.70984258,9.86948201 8.42354278,9.9881456 8.12500089,9.9881456 Z M5.12500089,5.4881456 C4.91789411,5.4881456 4.75000089,5.65603882 4.75000089,5.8631456 L4.75000089,8.8631456 C4.75000089,9.07025238 4.91789411,9.2381456 5.12500089,9.2381456 L8.12500089,9.2381456 C8.33210767,9.2381456 8.50000089,9.07025238 8.50000089,8.8631456 L8.50000089,5.8631456 C8.50000089,5.65603882 8.33210767,5.4881456 8.12500089,5.4881456 L5.12500089,5.4881456 Z M14.1250009,15.9881456 L11.1250009,15.9881456 C10.5036805,15.9881456 10.0000009,15.4844659 10.0000009,14.8631456 L10.0000009,11.8631456 C10.0000009,11.5646037 10.1186645,11.2783039 10.3298592,11.0672967 C10.541054,10.8562895 10.8274591,10.7378802 11.1260009,10.7381452 L14.1260009,10.7381452 C14.7473212,10.7381452 15.2510009,11.2418253 15.2510009,11.8631456 L15.2510009,14.8631456 C15.2510009,15.4844659 14.7473212,15.9881456 14.1260009,15.9881456 L14.1250009,15.9881456 Z M11.1250009,11.4881456 C10.9178941,11.4881456 10.7500009,11.6560388 10.7500009,11.8631456 L10.7500009,14.8631456 C10.7500009,15.0702524 10.9178941,15.2381456 11.1250009,15.2381456 L14.1250009,15.2381456 C14.3321077,15.2381456 14.5000009,15.0702524 14.5000009,14.8631456 L14.5000009,11.8631456 C14.5000009,11.6560388 14.3321077,11.4881456 14.1250009,11.4881456 L11.1250009,11.4881456 Z M12.8130009,10.3631669 C12.5128474,10.3649971 12.2245564,10.2460771 12.0130009,10.0331456 L9.95500089,7.9701456 C9.51632082,7.53091928 9.51632082,6.81937192 9.95500089,6.3801456 L12.0180009,4.3171456 C12.463656,3.8942848 13.1623458,3.8942848 13.6080009,4.3171456 L15.6710009,6.3801456 C16.109681,6.81937192 16.109681,7.53091928 15.6710009,7.9701456 L13.6080009,10.0331456 C13.3964453,10.2460771 13.1081544,10.3649971 12.8080009,10.3631669 L12.8130009,10.3631669 Z M12.8130009,4.73813551 C12.7138413,4.73955506 12.6192773,4.78018522 12.5500009,4.8511456 L10.4810009,6.9131456 C10.4098545,6.98357743 10.3698242,7.07953339 10.3698242,7.1796456 C10.3698242,7.27975781 10.4098545,7.37571377 10.4810009,7.4461456 L12.5510009,9.5091456 C12.6214327,9.58029201 12.7173887,9.62032227 12.8175009,9.62032227 C12.9176131,9.62032227 13.0135691,9.58029201 13.0840009,9.5091456 L15.1470009,7.4391456 C15.2181473,7.36871377 15.2581776,7.27275781 15.2581776,7.1726456 C15.2581776,7.07253339 15.2181473,6.97657743 15.1470009,6.9061456 L13.0760009,4.8431456 C13.0054269,4.77511734 12.9110214,4.73742695 12.8130009,4.73813551 Z" id="路径_3535" fill="#FFFFFF" fill-rule="nonzero"></path>
                </g>
            </g>
        </g>
    </g>
</svg>