<?xml version="1.0" encoding="UTF-8"?>
<svg width="20px" height="21px" viewBox="0 0 20 21" version="1.1" xmlns="http://www.w3.org/2000/svg" xmlns:xlink="http://www.w3.org/1999/xlink">
    <title>企业主体</title>
    <g id="页面-1" stroke="none" stroke-width="1" fill="none" fill-rule="evenodd">
        <g id="企业主体管理-–-新建" transform="translate(-21.000000, -73.000000)">
            <g id="企业主体" transform="translate(21.000000, 73.960000)">
                <rect id="矩形_608" x="0" y="0.04" width="20" height="20"></rect>
                <path d="M16.3625116,15.076 L15.9015116,15.076 L15.9015116,8.616 C15.8982184,7.59784957 15.0736621,6.77329323 14.0555116,6.77 L11.2865116,6.77 L11.2865116,5.846 C11.2832184,4.82784957 10.4586621,4.00329323 9.44051163,4 L5.74751163,4 C4.72897234,4.00329612 3.90425615,4.82845907 3.90151163,5.847 L3.90151163,15.077 L3.44051163,15.077 C3.19397806,15.0884791 3,15.2916993 3,15.5385 C3,15.7853007 3.19397806,15.9885209 3.44051163,16 L16.3625116,16 C16.5325148,16.0079157 16.6931038,15.9217265 16.7804731,15.7756774 C16.8678423,15.6296282 16.8678423,15.4473718 16.7804731,15.3013226 C16.6931038,15.1552735 16.5325148,15.0690843 16.3625116,15.077 L16.3625116,15.076 Z M10.3625116,6.769 L10.3625116,15.076 L4.82451163,15.076 L4.82451163,5.846 C4.82561164,5.33669751 5.23820914,4.92410001 5.74751163,4.923 L9.44051163,4.923 C9.94958684,4.92464662 10.361865,5.33692479 10.3635116,5.846 L10.3635116,6.769 L10.3625116,6.769 Z M14.9775116,15.076 L11.2855116,15.076 L11.2855116,7.692 L14.0545116,7.692 C14.5635868,7.69364662 14.975865,8.10592479 14.9775116,8.615 L14.9775116,15.076 Z M8.97751163,6.769 L6.20951163,6.769 C5.95463222,6.769 5.74801163,6.97562059 5.74801163,7.2305 C5.74801163,7.48537941 5.95463222,7.692 6.20951163,7.692 L8.97851163,7.692 C9.23339104,7.692 9.44001163,7.48537941 9.44001163,7.2305 C9.44001163,6.97562059 9.23339104,6.769 8.97851163,6.769 L8.97751163,6.769 Z M8.97751163,9.538 L6.20951163,9.538 C5.95463222,9.538 5.74801163,9.74462059 5.74801163,9.9995 C5.74801163,10.2543794 5.95463222,10.461 6.20951163,10.461 L8.97851163,10.461 C9.23339104,10.461 9.44001163,10.2543794 9.44001163,9.9995 C9.44001163,9.74462059 9.23339104,9.538 8.97851163,9.538 L8.97751163,9.538 Z M8.97751163,12.307 L6.20951163,12.307 C5.95463222,12.307 5.74801163,12.5136206 5.74801163,12.7685 C5.74801163,13.0233794 5.95463222,13.23 6.20951163,13.23 L8.97851163,13.23 C9.23339104,13.23 9.44001163,13.0233794 9.44001163,12.7685 C9.44001163,12.5136206 9.23339104,12.307 8.97851163,12.307 L8.97751163,12.307 Z M13.5925116,9.538 L12.6685116,9.538 C12.4136322,9.538 12.2070116,9.74462059 12.2070116,9.9995 C12.2070116,10.2543794 12.4136322,10.461 12.6685116,10.461 L13.5915116,10.461 C13.846391,10.461 14.0530116,10.2543794 14.0530116,9.9995 C14.0530116,9.74462059 13.846391,9.538 13.5915116,9.538 L13.5925116,9.538 Z M13.5925116,12.307 L12.6685116,12.307 C12.4136322,12.307 12.2070116,12.5136206 12.2070116,12.7685 C12.2070116,13.0233794 12.4136322,13.23 12.6685116,13.23 L13.5915116,13.23 C13.846391,13.23 14.0530116,13.0233794 14.0530116,12.7685 C14.0530116,12.5136206 13.846391,12.307 13.5915116,12.307 L13.5925116,12.307 Z" id="路径_3532" fill="#FFFFFF" fill-rule="nonzero"></path>
            </g>
        </g>
    </g>
</svg>