<svg xmlns="http://www.w3.org/2000/svg" width="16" height="16" viewBox="0 0 16 16">
  <defs>
    <style>
      .cls-1 {
        fill: none;
      }

      .cls-2 {
        fill: #d8d8d8;
      }

      .cls-3 {
        fill: #d8d9d9;
      }
    </style>
  </defs>
  <g id="日期" transform="translate(0 0.548)">
    <rect id="矩形_7944" data-name="矩形 7944" class="cls-1" width="16" height="16" transform="translate(0 -0.548)"/>
    <path id="路径_3451" data-name="路径 3451" class="cls-2" d="M92.5,109.127H90.492V108.6a.566.566,0,1,0-1.133,0v.529H82.308V108.6a.566.566,0,1,0-1.133,0v.529h-2.02a1.329,1.329,0,0,0-1.331,1.331v11.148a1.329,1.329,0,0,0,1.331,1.331H92.493a1.329,1.329,0,0,0,1.331-1.331V110.458A1.321,1.321,0,0,0,92.5,109.127ZM79.155,110.26h2.011v.33a.566.566,0,1,0,1.133,0v-.33H89.35v.33a.566.566,0,1,0,1.133,0v-.33h2.011a.194.194,0,0,1,.2.2v1.963H78.966v-1.963A.192.192,0,0,1,79.155,110.26ZM92.5,121.795H79.155a.194.194,0,0,1-.2-.2v-8.042H92.691v8.052A.184.184,0,0,1,92.5,121.795Z" transform="translate(-77.824 -108.032)"/>
    <path id="路径_3452" data-name="路径 3452" class="cls-3" d="M231.72,492.032h-9.464a.58.58,0,0,0,0,1.158h9.474a.579.579,0,0,0-.009-1.158Zm0,3.06h-9.464a.58.58,0,0,0,0,1.158h9.474a.579.579,0,0,0-.009-1.158Z" transform="translate(-218.983 -485.014)"/>
  </g>
</svg>
