<svg t="1635214004887" class="icon" viewBox="0 0 1024 1024" version="1.1" xmlns="http://www.w3.org/2000/svg" p-id="6373" width="200" height="200"><path d="M512 256H42.666667a42.666667 42.666667 0 1 0 0 85.333333h469.333333a85.333333 85.333333 0 0 0 85.333333 85.333334h170.666667a85.333333 85.333333 0 0 0 85.333333-85.333334h128a42.666667 42.666667 0 0 0 0-85.333333h-128a85.333333 85.333333 0 0 0-85.333333-85.333333h-170.666667a85.333333 85.333333 0 0 0-85.333333 85.333333z m0 426.666667h469.333333a42.666667 42.666667 0 0 1 0 85.333333H512a85.333333 85.333333 0 0 1-85.333333 85.333333H256a85.333333 85.333333 0 0 1-85.333333-85.333333H42.666667a42.666667 42.666667 0 0 1 0-85.333333h128a85.333333 85.333333 0 0 1 85.333333-85.333334h170.666667a85.333333 85.333333 0 0 1 85.333333 85.333334z m85.333333-426.666667h170.666667v85.333333h-170.666667V256zM256 682.666667v85.333333h170.666667v-85.333333H256z" p-id="6374"></path></svg>