<?xml version="1.0" standalone="no"?><!DOCTYPE svg PUBLIC "-//W3C//DTD SVG 1.1//EN" "http://www.w3.org/Graphics/SVG/1.1/DTD/svg11.dtd"><svg t="1718866016374" class="icon" viewBox="0 0 1056 1024" version="1.1" xmlns="http://www.w3.org/2000/svg" p-id="3364" xmlns:xlink="http://www.w3.org/1999/xlink" width="206.25" height="200"><path d="M834.784418 1024h-55.998899a35.06174 35.06174 0 0 1-33.3714-24.855674l-8.400476-28.172326a209.115488 209.115488 0 0 1-19.643794-8.131557l-26.187457 13.983718a34.677571 34.677571 0 0 1-40.977928-6.069856l-39.697367-39.697368a34.639155 34.639155 0 0 1-6.108273-40.977927l13.996524-26.277097a206.28545 206.28545 0 0 1-8.080335-19.477321l-28.377215-8.605365a34.575127 34.575127 0 0 1-24.727619-33.294566v-56.011705a34.575127 34.575127 0 0 1 24.727619-33.294567l28.377215-8.61817a207.694066 207.694066 0 0 1 8.080335-19.477321l-13.983718-26.161846a34.639155 34.639155 0 0 1 6.108272-41.067567l39.607729-39.607729a34.639155 34.639155 0 0 1 41.080373-6.082661l26.200262 14.086163a201.637016 201.637016 0 0 1 19.426099-8.06753l8.605365-28.428437a34.575127 34.575127 0 0 1 33.294566-24.740424h56.024511a34.575127 34.575127 0 0 1 33.294566 24.740424l8.618171 28.454048a208.219096 208.219096 0 0 1 19.554155 8.118752l25.94415-14.086162a35.074545 35.074545 0 0 1 41.195623 6.005827l39.710174 39.582117a35.06174 35.06174 0 0 1 5.993022 41.208429l-14.00933 25.918539a202.098018 202.098018 0 0 1 8.18278 19.707823l28.274771 8.451697a35.036128 35.036128 0 0 1 24.855674 33.3714v55.9989a35.06174 35.06174 0 0 1-24.855674 33.3714l-28.274771 8.438892a198.576477 198.576477 0 0 1-8.169974 19.733433L1009.081473 889.886926a35.06174 35.06174 0 0 1-6.005827 41.182817l-39.697368 39.620534a35.023323 35.023323 0 0 1-41.182817 6.018633l-25.905734-13.983718a205.286613 205.286613 0 0 1-19.797462 8.221197l-8.400475 28.172325a35.023323 35.023323 0 0 1-33.307372 24.881286z m27.864991-48.661289h-0.064028z m-64.463403-12.101295h17.32598l6.812581-22.832389a34.575127 34.575127 0 0 1 24.061727-23.575114 146.867455 146.867455 0 0 0 33.064066-13.740411 34.575127 34.575127 0 0 1 33.704345-0.371363l21.039605 11.35857 12.293378-12.293379-11.396986-21.090827a34.575127 34.575127 0 0 1 0.448196-33.870819 139.581067 139.581067 0 0 0 13.497105-32.705508 34.575127 34.575127 0 0 1 23.58792-24.151366l22.973251-6.838192v-17.390008l-22.973251-6.850998a34.575127 34.575127 0 0 1-23.575114-24.125755 141.514713 141.514713 0 0 0-13.59955-32.769536 34.575127 34.575127 0 0 1-0.409779-33.845208l11.38418-21.078021-12.280572-12.280573-21.090828 11.396986a34.575127 34.575127 0 0 1-33.781179-0.384168 141.706797 141.706797 0 0 0-32.654286-13.573938 34.575127 34.575127 0 0 1-24.100144-23.459864l-7.004665-23.152529h-17.492452l-7.004665 23.152529a34.575127 34.575127 0 0 1-24.151366 23.472669 140.579904 140.579904 0 0 0-32.398174 13.445883 34.575127 34.575127 0 0 1-33.601901 0.422585l-21.372551-11.435403-12.421434 12.43424 11.371375 21.295717a34.575127 34.575127 0 0 1-0.461002 33.6019 145.407616 145.407616 0 0 0-13.548327 32.679898 34.575127 34.575127 0 0 1-23.421447 23.933671l-23.050085 6.991859v17.556481l23.050085 6.991859a34.575127 34.575127 0 0 1 23.395836 23.959282 146.086313 146.086313 0 0 0 13.561133 32.679897 34.575127 34.575127 0 0 1 0.486612 33.653124l-11.38418 21.308522 12.43424 12.43424 21.359745-11.422597a34.575127 34.575127 0 0 1 33.525067 0.409779 146.508898 146.508898 0 0 0 32.948815 13.650772 34.575127 34.575127 0 0 1 24.036116 23.562309z m111.293491-7.324804z m46.189808-37.136247z m-330.525405-41.96396z m-19.208403-46.305058z m408.152967-59.238717z m-408.165773-52.963972z m19.208404-46.305058z m363.013218-0.217695z m-334.661614-11.076847z m302.122578-30.643806z m-92.866229-56.421485z m-59.149077-6.479634s0.012806 0.025611 0.012805 0z" p-id="3365"></path><path d="M806.778566 868.604014a94.185206 94.185206 0 1 1 94.185206-94.185206 94.287651 94.287651 0 0 1-94.185206 94.185206z m0-127.595023a33.422622 33.422622 0 1 0 33.422622 33.409817 33.435428 33.435428 0 0 0-33.422622-33.409817zM399.265879 472.744426H70.891815A70.968649 70.968649 0 0 1 0 401.852611V70.891815A70.968649 70.968649 0 0 1 70.891815 0h328.374064a70.968649 70.968649 0 0 1 70.891815 70.891815v330.960796a70.968649 70.968649 0 0 1-70.891815 70.891815zM70.891815 60.762584a10.142037 10.142037 0 0 0-10.129231 10.129231v330.960796a10.142037 10.142037 0 0 0 10.129231 10.129231h328.374064a10.142037 10.142037 0 0 0 10.129231-10.129231V70.891815a10.142037 10.142037 0 0 0-10.129231-10.129231z" p-id="3366"></path><path d="M184.375064 185.34829m20.258463 0l60.877834 0q20.258463 0 20.258463 20.258463l0 61.518114q0 20.258463-20.258463 20.258463l-60.877834 0q-20.258463 0-20.258463-20.258463l0-61.518114q0-20.258463 20.258463-20.258463Z" p-id="3367"></path><path d="M399.265879 1014.549465H70.891815A70.968649 70.968649 0 0 1 0 943.65765V612.696855a70.968649 70.968649 0 0 1 70.891815-70.891815h328.374064a70.968649 70.968649 0 0 1 70.891815 70.891815v330.960795a70.968649 70.968649 0 0 1-70.891815 70.891815zM70.891815 602.567623a10.142037 10.142037 0 0 0-10.129231 10.129232v330.960795a10.142037 10.142037 0 0 0 10.129231 10.129232h328.374064a10.142037 10.142037 0 0 0 10.129231-10.129232V612.696855a10.142037 10.142037 0 0 0-10.129231-10.129232z" p-id="3368"></path><path d="M184.375064 727.166135m20.258463 0l60.877834 0q20.258463 0 20.258463 20.258463l0 61.518114q0 20.258463-20.258463 20.258464l-60.877834 0q-20.258463 0-20.258463-20.258464l0-61.518114q0-20.258463 20.258463-20.258463Z" p-id="3369"></path><path d="M971.458613 472.744426H643.084549a70.968649 70.968649 0 0 1-70.891815-70.891815V70.891815A70.968649 70.968649 0 0 1 643.084549 0h328.374064a70.968649 70.968649 0 0 1 70.891815 70.891815v330.960796a70.968649 70.968649 0 0 1-70.891815 70.891815zM643.084549 60.762584a10.129232 10.129232 0 0 0-10.129231 10.129231v330.960796a10.129232 10.129232 0 0 0 10.129231 10.129231h328.374064a10.142037 10.142037 0 0 0 10.129232-10.129231V70.891815a10.142037 10.142037 0 0 0-10.129232-10.129231z" p-id="3370"></path><path d="M756.567798 185.34829m20.258463 0l60.877835 0q20.258463 0 20.258463 20.258463l0 61.518114q0 20.258463-20.258463 20.258463l-60.877835 0q-20.258463 0-20.258463-20.258463l0-61.518114q0-20.258463 20.258463-20.258463Z" p-id="3371"></path></svg>