<svg t="1714293151629" class="icon" viewBox="0 0 1024 1024" version="1.1" xmlns="http://www.w3.org/2000/svg" p-id="10920" width="200" height="200"><path d="M347.58 505.856l-135.612-76.63a23.893 23.893 0 0 0-31.642 7.442 21.06 21.06 0 0 0 7.885 29.798l135.612 76.664a23.893 23.893 0 0 0 31.642-7.441 21.094 21.094 0 0 0-7.885-29.833z" p-id="10921"></path><path d="M932.318 400.555c-12.766 0-23.074 9.728-23.074 21.743v268.356l-387.79 206.302v-380.11c0-1.672-0.648-3.14-0.989-4.71l396.083-211.49a21.129 21.129 0 0 0-1.024-38.297L508.724 70.69a24.474 24.474 0 0 0-20.617 0L81.306 262.35a20.582 20.582 0 0 0-11.162 24.985 19.558 19.558 0 0 0-1.536 7.203v408.849c0 7.645 4.233 14.677 11.127 18.602l406.802 230.776 0.17 0.068c0.273 0.137 0.615 0.137 0.854 0.307a24.508 24.508 0 0 0 9.181 2.458c1.059 0.068 2.083-0.103 3.14-0.17a23.552 23.552 0 0 0 7.954-1.878c0.648-0.273 1.263-0.137 1.911-0.478l433.937-230.81a21.504 21.504 0 0 0 11.742-18.91V422.298c-0.034-11.981-10.376-21.743-23.108-21.743zM475.375 895.693l-360.721-204.63V319.01l361.71 193.127c-0.375 1.57-0.99 3.037-0.99 4.71v378.846z m380.791-612.728l-357.751 191.01-357.717-191.01 357.683-168.55 357.785 168.55z" p-id="10922"></path></svg>