<?xml version="1.0" standalone="no"?><!DOCTYPE svg PUBLIC "-//W3C//DTD SVG 1.1//EN" "http://www.w3.org/Graphics/SVG/1.1/DTD/svg11.dtd"><svg t="1698212232528" class="icon" viewBox="0 0 1024 1024" version="1.1" xmlns="http://www.w3.org/2000/svg" p-id="4087" xmlns:xlink="http://www.w3.org/1999/xlink" width="200" height="200"><path d="M952.64 320a84.48 84.48 0 0 1 7.36 46.08 150.72 150.72 0 0 1-92.8 135.04 172.48 172.48 0 0 1-83.84 18.24 192 192 0 0 1-137.6-54.72 186.24 186.24 0 0 1-134.72 54.72 186.88 186.88 0 0 1-134.72-54.72 185.28 185.28 0 0 1-134.4 54.72 208.64 208.64 0 0 1-83.84-15.68A150.08 150.08 0 0 1 64 371.2a130.88 130.88 0 0 1 8.96-49.28V316.8l80.96-166.4A92.16 92.16 0 0 1 246.4 96h532.8a96 96 0 0 1 96 54.4l74.88 163.84c2.56 0 2.56 2.56 2.56 5.76z m-113.6 134.4a88.32 88.32 0 0 0 53.76-85.76 104.64 104.64 0 0 0-6.08-32v-2.88l-74.56-162.56a34.24 34.24 0 0 0-32-17.92H246.4c-23.68 0-29.76 12.8-29.76 15.36l-80.96 166.08v2.88a115.52 115.52 0 0 0-5.76 32 98.88 98.88 0 0 0 59.84 84.8 116.16 116.16 0 0 0 53.76 10.24 118.72 118.72 0 0 0 96-46.72 24 24 0 0 1 8.96-12.8 48 48 0 0 1 64 0 14.4 14.4 0 0 1 8.96 10.24 121.28 121.28 0 0 0 192 0 36.48 36.48 0 0 0 8.96-10.24 48.32 48.32 0 0 1 30.08-10.56 41.6 41.6 0 0 1 29.76 10.56c6.08 5.12 6.08 10.24 8.96 12.8a119.68 119.68 0 0 0 96 46.72 117.44 117.44 0 0 0 51.84-10.24zM768 347.84H246.4a32 32 0 0 1-32-28.48 32 32 0 0 1 32-28.48h517.76a32 32 0 0 1 32 28.48 32 32 0 0 1-28.16 28.48z m-315.2 490.24c22.72 0 38.4 8.96 40.32 29.12-3.2 21.44-16.96 26.24-40.32 28.8H291.2A128 128 0 0 1 160 763.52v-148.8c0-22.08 7.68-40.64 32-40.64s32 17.92 32 40.64v148.8c0 28.16 8.64 78.08 67.2 74.56zM800 704h96a32 32 0 0 1 0 64h-96v96a32 32 0 0 1-64 0v-96h-96a32 32 0 0 1 0-64h96v-96a32 32 0 0 1 64 0z" p-id="4088"></path></svg>